<svg width="42" height="43" viewBox="0 0 42 43" fill="none" xmlns="http://www.w3.org/2000/svg">
<path d="M41.1501 19.6354L22.8697 1.35438C22.3636 0.848886 21.6776 0.564941 20.9622 0.564941C20.2468 0.564941 19.5608 0.848886 19.0547 1.35438L15.2537 5.15171L20.0699 9.96685C22.5995 9.11261 24.9945 11.5342 24.1261 14.0492L28.7684 18.6905C31.9683 17.5877 34.4876 21.5878 32.0842 23.9889C29.6079 26.4647 25.5208 23.7206 26.8492 20.499L22.5163 16.1727V27.561C24.8814 28.733 24.5972 31.4723 23.3651 32.7013C22.7632 33.3028 21.9469 33.6407 21.0959 33.6407C20.2448 33.6407 19.4286 33.3028 18.8266 32.7013C17.1841 31.0564 17.7918 28.3171 19.8783 27.4675V15.9717C17.9339 15.1764 17.5786 13.0987 18.1358 11.766L13.3878 7.01347L0.850054 19.5504C0.344223 20.0562 0.0600586 20.7422 0.0600586 21.4575C0.0600586 22.1727 0.344223 22.8587 0.850054 23.3645L19.136 41.6456C19.6419 42.151 20.3279 42.4349 21.0431 42.4349C21.7583 42.4349 22.4442 42.151 22.9501 41.6456L41.1501 23.4496C41.6559 22.9438 41.9401 22.2578 41.9401 21.5425C41.9401 20.8272 41.6559 20.1413 41.1501 19.6354Z" fill="white"/>
</svg>
