<svg width="35" height="35" viewBox="0 0 35 35" fill="none" xmlns="http://www.w3.org/2000/svg">
<path d="M11.8357 27.7578C11.8357 27.8968 11.677 28.008 11.4769 28.008C11.2492 28.0288 11.0905 27.9176 11.0905 27.7578C11.0905 27.6188 11.2492 27.5076 11.4493 27.5076C11.6563 27.4867 11.8357 27.5979 11.8357 27.7578ZM9.69001 27.445C9.64171 27.584 9.7797 27.7439 9.98667 27.7856C10.1661 27.8551 10.373 27.7856 10.4144 27.6466C10.4558 27.5076 10.3247 27.3477 10.1178 27.2852C9.93838 27.2366 9.7383 27.306 9.69001 27.445ZM12.7394 27.3269C12.5394 27.3755 12.4014 27.5076 12.4221 27.6674C12.4428 27.8064 12.6222 27.8968 12.8291 27.8481C13.0292 27.7995 13.1672 27.6674 13.1465 27.5284C13.1258 27.3964 12.9395 27.306 12.7394 27.3269ZM17.2791 0.695068C7.70994 0.695068 0.389893 8.01326 0.389893 17.6527C0.389893 25.3601 5.20553 31.9555 12.084 34.2768C12.9671 34.4366 13.2776 33.8876 13.2776 33.4358C13.2776 33.0049 13.2569 30.6281 13.2569 29.1686C13.2569 29.1686 8.42745 30.2111 7.41327 27.0976C7.41327 27.0976 6.62676 25.0751 5.4953 24.5539C5.4953 24.5539 3.91538 23.4628 5.60568 23.4836C5.60568 23.4836 7.32358 23.6226 8.26877 25.2767C9.7797 27.9593 12.3117 27.1879 13.2983 26.7292C13.457 25.6172 13.9054 24.8458 14.4022 24.3871C10.5455 23.9562 6.65436 23.3933 6.65436 16.7075C6.65436 14.7963 7.1787 13.8372 8.28257 12.6141C8.10319 12.1623 7.51676 10.2998 8.46195 7.89511C9.90388 7.44337 13.2224 9.77157 13.2224 9.77157C14.6022 9.38238 16.0856 9.18084 17.5551 9.18084C19.0246 9.18084 20.5079 9.38238 21.8878 9.77157C21.8878 9.77157 25.2063 7.43642 26.6482 7.89511C27.5934 10.3067 27.007 12.1623 26.8276 12.6141C27.9315 13.8442 28.6076 14.8033 28.6076 16.7075C28.6076 23.4141 24.544 23.9493 20.6873 24.3871C21.322 24.9361 21.8602 25.9786 21.8602 27.6118C21.8602 29.9539 21.8395 32.852 21.8395 33.4219C21.8395 33.8737 22.1568 34.4227 23.033 34.2629C29.9322 31.9555 34.6099 25.3601 34.6099 17.6527C34.6099 8.01326 26.8483 0.695068 17.2791 0.695068ZM7.09591 24.6651C7.00622 24.7346 7.02692 24.8945 7.1442 25.0265C7.25459 25.1377 7.41327 25.1863 7.50296 25.096C7.59265 25.0265 7.57195 24.8667 7.45467 24.7346C7.34428 24.6234 7.1856 24.5748 7.09591 24.6651ZM6.3508 24.1022C6.3025 24.1925 6.37149 24.3037 6.50948 24.3732C6.61986 24.4427 6.75785 24.4219 6.80614 24.3246C6.85444 24.2342 6.78545 24.123 6.64746 24.0535C6.50948 24.0118 6.39909 24.0327 6.3508 24.1022ZM8.58613 26.5763C8.47575 26.6667 8.51714 26.8752 8.67582 27.0072C8.83451 27.1671 9.03458 27.1879 9.12427 27.0767C9.21396 26.9864 9.17257 26.7779 9.03458 26.6458C8.8828 26.486 8.67582 26.4651 8.58613 26.5763ZM7.79963 25.5547C7.68924 25.6242 7.68924 25.8049 7.79963 25.9647C7.91001 26.1246 8.09629 26.1941 8.18598 26.1246C8.29637 26.0342 8.29637 25.8535 8.18598 25.6937C8.08939 25.5338 7.91001 25.4643 7.79963 25.5547Z" fill="white"/>
</svg>
