<svg width="39" height="45" viewBox="0 0 39 45" fill="none" xmlns="http://www.w3.org/2000/svg">
<path d="M28.2595 27.5006C29.2572 26.9118 30.6417 26.402 30.6417 26.402C30.6417 26.402 26.7019 27.0172 22.7823 27.2985C17.9873 27.6412 12.8359 27.7115 10.2501 27.4127C4.13157 26.7096 13.6097 24.7673 13.6097 24.7673C13.6097 24.7673 9.93448 24.5563 5.40414 26.4371C0.0593468 28.6695 18.6389 29.6891 28.2595 27.5006ZM19.5653 24.6794C17.631 20.9265 11.1052 17.6306 19.5653 11.8651C30.1185 4.67572 24.7065 0 24.7065 0C26.8953 7.42666 17.01 9.67663 13.4366 14.2908C11.0034 17.4461 14.6277 20.8298 19.5653 24.6794ZM31.2322 9.19324C31.2424 9.19324 13.3959 13.0428 21.917 21.5153C24.4316 24.0114 21.2553 26.2614 21.2553 26.2614C21.2553 26.2614 27.6385 23.4138 24.7065 19.8542C21.9679 16.532 19.8707 14.8797 31.2322 9.19324ZM30.6112 32.9673C30.5556 33.0511 30.4871 33.1279 30.4076 33.1959C43.4692 30.234 38.664 22.7458 32.4233 24.6442C32.0863 24.7511 31.795 24.9443 31.5885 25.1979C31.9529 25.084 32.3275 24.9959 32.7084 24.9342C35.8644 24.363 40.3947 28.5817 30.6112 32.9673ZM35.4123 38.4429C35.4123 38.4429 36.8885 39.4887 33.7936 40.3061C27.8991 41.8442 9.27886 42.31 4.10714 40.3676C2.24409 39.6733 5.73602 38.6977 6.83552 38.4956C7.97575 38.2846 8.63748 38.3198 8.63748 38.3198C6.57083 37.063 -4.72959 40.7895 2.89565 41.853C23.6884 44.7709 40.808 40.5434 35.4123 38.4429ZM12.6527 34.8042C4.6406 36.7378 17.5292 40.728 27.7301 36.9575C26.7352 36.6238 25.7748 36.2181 24.8592 35.7446C20.3085 36.4917 18.2011 36.5444 14.0678 36.1401C10.6573 35.8062 12.6527 34.8042 12.6527 34.8042ZM30.9573 43.3471C22.9452 44.6479 13.0599 44.4984 7.2061 43.6635C7.2061 43.6547 8.4074 44.516 14.5768 44.8588C23.9633 45.3773 38.379 44.5687 38.7149 40.7368C38.7149 40.7368 38.0634 42.1869 30.9573 43.3471ZM26.5186 31.025C20.4917 32.0269 16.9998 32.0006 12.5916 31.6051C9.18112 31.2974 11.4107 29.8736 11.4107 29.8736C2.57394 32.4048 16.3177 35.27 28.6667 32.15C27.8686 31.9067 27.1373 31.5237 26.5186 31.025Z" fill="white"/>
</svg>
