<svg width="42" height="43" viewBox="0 0 42 43" fill="none" xmlns="http://www.w3.org/2000/svg">
<path d="M19.6246 0.511302C19.5343 0.519512 19.2469 0.548247 18.9883 0.568772C13.0229 1.10652 7.43518 4.32482 3.89619 9.27132C1.92552 12.0216 0.665104 15.1414 0.188856 18.4459C0.0205279 19.5994 0 19.9401 0 21.5041C0 23.0681 0.0205279 23.4088 0.188856 24.5623C1.33021 32.448 6.94252 39.0734 14.5543 41.5282C15.9173 41.9674 17.3542 42.267 18.9883 42.4477C19.6246 42.5176 22.3754 42.5176 23.0117 42.4477C25.8323 42.1357 28.2217 41.4378 30.5783 40.2351C30.9396 40.0503 31.0094 40.0011 30.9601 39.96C30.9273 39.9354 29.3877 37.8706 27.5402 35.3748L24.1818 30.8388L19.9736 24.6116C17.6581 21.188 15.7531 18.3884 15.7366 18.3884C15.7202 18.3844 15.7038 21.1511 15.6956 24.5295C15.6833 30.4447 15.6792 30.6828 15.6053 30.8224C15.4985 31.0235 15.4164 31.1056 15.244 31.1959C15.1126 31.2616 14.9977 31.2739 14.3777 31.2739H13.6674L13.4786 31.1549C13.3554 31.0769 13.2651 30.9743 13.2035 30.8552L13.1173 30.6705L13.1255 22.44L13.1378 14.2055L13.2651 14.0454C13.3308 13.9592 13.4704 13.8484 13.5689 13.795C13.7372 13.7129 13.8029 13.7047 14.5132 13.7047C15.3507 13.7047 15.4903 13.7375 15.7079 13.9756C15.7695 14.0413 18.0481 17.473 20.7742 21.6067C23.5003 25.7404 27.2281 31.3848 29.0593 34.1556L32.3847 39.1924L32.5531 39.0816C34.0434 38.1128 35.6199 36.7335 36.868 35.2968C39.5244 32.2468 41.2364 28.5277 41.8111 24.5623C41.9795 23.4088 42 23.0681 42 21.5041C42 19.9401 41.9795 19.5994 41.8111 18.4459C40.6698 10.5603 35.0575 3.93485 27.4457 1.48008C26.1032 1.04495 24.6745 0.745285 23.0733 0.564667C22.6792 0.523617 19.9654 0.478463 19.6246 0.511302ZM28.2217 13.2121C28.4188 13.3106 28.5789 13.4994 28.6364 13.6964C28.6692 13.8032 28.6774 16.0856 28.6692 21.2291L28.6569 28.6098L27.3554 26.6148L26.0499 24.6198V19.2546C26.0499 15.7859 26.0663 13.836 26.0909 13.7416C26.1566 13.5117 26.3003 13.3311 26.4974 13.2244C26.6657 13.1382 26.7273 13.13 27.3719 13.13C27.9795 13.13 28.0862 13.1382 28.2217 13.2121Z" fill="white"/>
</svg>
