<svg width="43" height="45" viewBox="0 0 43 45" fill="none" xmlns="http://www.w3.org/2000/svg">
<path d="M21.4907 44.8051C20.8636 44.8051 20.2271 44.6457 19.6749 44.3448L13.8999 41.1138C13.0387 40.6534 13.4599 40.4941 13.7407 40.4056C14.892 40.025 15.126 39.9453 16.3521 39.2814C16.4832 39.2106 16.6517 39.2371 16.7827 39.3168L21.2193 41.8042C21.3784 41.8927 21.603 41.8927 21.7528 41.8042L39.0405 32.3679C39.1996 32.2794 39.3026 32.1024 39.3026 31.9253V13.0527C39.3026 12.8668 39.1996 12.6986 39.0312 12.6012L21.7528 3.17379C21.5937 3.08527 21.3784 3.08527 21.2193 3.17379L3.95029 12.6101C3.78181 12.6986 3.67885 12.8757 3.67885 13.0615V31.9253C3.67885 32.1024 3.78181 32.2794 3.95029 32.3591L8.68639 34.9439C11.2604 36.1566 12.8328 34.7314 12.8328 33.2885V14.6638C12.8328 14.3982 13.0575 14.1946 13.3383 14.1946H15.5285C15.7999 14.1946 16.0339 14.3982 16.0339 14.6638V33.2974C16.0339 36.5372 14.1619 38.3962 10.914 38.3962C9.91254 38.3962 9.12631 38.3962 6.9361 37.3693L2.40591 34.8996C1.28272 34.2888 0.590088 33.1469 0.590088 31.9165V13.0527C0.590088 11.8311 1.28272 10.6803 2.40591 10.0696L19.6749 0.633246C20.77 0.0490092 22.2208 0.0490092 23.3065 0.633246L40.5943 10.0784C41.7175 10.6892 42.4101 11.8311 42.4101 13.0615V31.9253C42.4101 33.1469 41.7175 34.2888 40.5943 34.9085L23.3065 44.3448C22.7543 44.6457 22.1272 44.8051 21.4907 44.8051ZM35.4463 26.2069C35.4463 22.6749 32.9192 21.7366 27.6121 21.0727C22.2395 20.3999 21.6966 20.0547 21.6966 18.8685C21.6966 17.8859 22.1553 16.5758 26.1332 16.5758C29.6806 16.5758 30.991 17.3017 31.5339 19.5678C31.5807 19.7803 31.7866 19.9396 32.0206 19.9396H34.267C34.4074 19.9396 34.5384 19.8865 34.632 19.7891C34.7256 19.6917 34.7724 19.559 34.7631 19.4262C34.4167 15.5224 31.6743 13.7078 26.1332 13.7078C21.2006 13.7078 18.2616 15.6729 18.2616 18.9747C18.2616 22.551 21.1912 23.5424 25.918 23.985C31.5807 24.5073 32.0206 25.2951 32.0206 26.3485C32.0206 28.172 30.4669 28.951 26.8259 28.951C22.2489 28.951 21.2474 27.8622 20.9104 25.7112C20.873 25.481 20.6671 25.3128 20.4143 25.3128H18.1773C17.8965 25.3128 17.6813 25.5253 17.6813 25.782C17.6813 28.535 19.2631 31.8191 26.8352 31.8191C32.3014 31.8102 35.4463 29.7654 35.4463 26.2069Z" fill="white"/>
</svg>
