<svg width="42" height="33" viewBox="0 0 42 33" fill="none" xmlns="http://www.w3.org/2000/svg">
<path d="M23.978 9.25739L22.5378 11.8174L17.6127 3.06007L2.49327 29.94H12.7301C12.7301 31.3539 13.8466 32.5 15.2239 32.5H2.49327C1.60242 32.5 0.779328 32.0118 0.333979 31.2198C-0.111369 30.4278 -0.111324 29.452 0.334099 28.66L15.4535 1.78007C15.8989 0.987964 16.7222 0.5 17.6132 0.5C18.5041 0.5 19.3274 0.987964 19.7729 1.78007L23.978 9.25739Z" fill="white"/>
<path d="M34.8923 28.66L25.4181 11.8174L23.978 9.25739L22.5378 11.8174L13.0647 28.66C12.6193 29.452 12.6192 30.4278 13.0646 31.2198C13.5099 32.0118 14.333 32.5 15.2239 32.5H32.73C33.621 32.5 34.4444 32.0124 34.89 31.2203C35.3356 30.4282 35.3357 29.4522 34.8902 28.66H34.8923ZM15.2239 29.94L23.978 14.3774L32.73 29.94L15.2239 29.94Z" fill="white"/>
<path d="M41.6659 31.22C41.2205 32.0119 40.3975 32.5 39.5067 32.5H32.73C34.1072 32.5 35.2237 31.3539 35.2237 29.94H39.5015L27.3632 8.35819L25.4181 11.8174L23.978 9.25739L25.204 7.07819C25.6495 6.28609 26.4728 5.79812 27.3637 5.79812C28.2547 5.79812 29.078 6.28609 29.5234 7.07819L41.6659 28.66C42.1114 29.4521 42.1114 30.4279 41.6659 31.22Z" fill="white"/>
</svg>
