<svg width="46" height="43" viewBox="0 0 46 43" fill="none" xmlns="http://www.w3.org/2000/svg">
<path d="M37.2559 14.1318C36.7812 13.9635 36.3066 13.8046 35.832 13.655C35.9111 13.3092 35.9814 12.9633 36.0518 12.6174C37.1328 7.0462 36.4209 2.56865 34.0215 1.09171C31.71 -0.319796 27.9395 1.1478 24.125 4.68123C23.7471 5.0271 23.3779 5.39166 23.0264 5.75622C22.7891 5.51318 22.543 5.27014 22.2969 5.03645C18.2979 1.25997 14.29 -0.329143 11.8906 1.15714C9.58789 2.578 8.90234 6.79382 9.86914 12.0659C9.96582 12.5894 10.0713 13.1035 10.1943 13.627C9.63184 13.7953 9.07812 13.9822 8.55957 14.1785C3.86621 15.9078 0.5 18.6374 0.5 21.4604C0.5 24.3769 4.08594 27.3027 8.96387 29.0788C9.35938 29.219 9.75488 29.3592 10.1592 29.4807C10.0273 30.0416 9.91309 30.5931 9.80762 31.1633C8.88477 36.3513 9.60547 40.4643 11.9082 41.8758C14.2812 43.334 18.2715 41.8384 22.1562 38.2208C22.4639 37.9311 22.7715 37.6319 23.0791 37.3141C23.4658 37.7161 23.8701 38.0993 24.2744 38.4732C28.0361 41.9132 31.7539 43.306 34.0479 41.8945C36.4209 40.4362 37.1943 36.0148 36.1924 30.6305C36.1133 30.2192 36.0254 29.7985 35.9287 29.3685C36.21 29.2844 36.4824 29.1909 36.7549 29.0975C41.8262 27.312 45.5 24.4236 45.5 21.4604C45.5 18.628 42.0371 15.8798 37.2559 14.1318ZM25.3643 6.19556C28.6338 3.1669 31.6836 1.97974 33.0723 2.83038C34.5576 3.73711 35.1289 7.40142 34.1973 12.2155C34.1357 12.5333 34.0742 12.8418 33.9951 13.1503C32.0439 12.6829 30.0664 12.3464 28.0801 12.1594C26.9375 10.4207 25.6895 8.75684 24.3359 7.19577C24.6787 6.8499 25.0127 6.52273 25.3643 6.19556ZM15.1953 26.3118C15.6436 27.1251 16.1006 27.9383 16.584 28.7329C15.2129 28.574 13.8506 28.3403 12.5059 28.0318C12.8926 26.6858 13.376 25.2929 13.9385 23.8721C14.3428 24.6947 14.7559 25.5079 15.1953 26.3118ZM12.5322 15.0665C13.7979 14.7674 15.1426 14.5244 16.54 14.3374C16.0742 15.1133 15.6172 15.9078 15.1865 16.7117C14.7559 17.5063 14.334 18.3195 13.9385 19.1421C13.3848 17.7493 12.9189 16.3846 12.5322 15.0665ZM14.9404 21.5071C15.5205 20.2171 16.1533 18.9552 16.8213 17.7119C17.4893 16.4687 18.21 15.2628 18.9658 14.0757C20.2842 13.9729 21.6289 13.9168 23 13.9168C24.3711 13.9168 25.7246 13.9729 27.0342 14.0757C27.7812 15.2535 28.4932 16.4594 29.1699 17.6933C29.8467 18.9271 30.4795 20.1891 31.0771 21.4697C30.4883 22.7597 29.8555 24.031 29.1787 25.2836C28.5107 26.5268 27.7988 27.7327 27.0518 28.9292C25.7422 29.032 24.3799 29.0788 23 29.0788C21.6201 29.0788 20.2842 29.032 18.9922 28.9479C18.2275 27.7607 17.5068 26.5455 16.8301 25.3023C16.1533 24.059 15.5293 22.7971 14.9404 21.5071ZM30.8135 26.2931C31.2617 25.4705 31.6836 24.6386 32.0967 23.7973C32.6592 25.1527 33.1514 26.5268 33.582 27.9383C32.2197 28.2655 30.8398 28.5179 29.4512 28.6862C29.9258 27.901 30.374 27.0971 30.8135 26.2931ZM32.0791 19.1421C31.666 18.3195 31.2441 17.4969 30.8047 16.693C30.374 15.8985 29.9258 15.1133 29.46 14.3374C30.875 14.5244 32.2285 14.7768 33.4941 15.0852C33.0898 16.4687 32.6152 17.8148 32.0791 19.1421ZM23.0176 8.62597C23.9404 9.69161 24.8105 10.8133 25.6191 11.9725C23.8789 11.8883 22.1299 11.8883 20.3896 11.9725C21.251 10.7666 22.1387 9.64487 23.0176 8.62597ZM12.8223 2.89582C14.2988 1.97974 17.5771 3.28842 21.0312 6.54143C21.251 6.74708 21.4707 6.97142 21.6992 7.19577C20.3369 8.75684 19.0801 10.4207 17.9287 12.1594C15.9424 12.3464 13.9736 12.6735 12.0225 13.1316C11.9082 12.6548 11.8115 12.1688 11.7148 11.6827C10.8887 7.15838 11.4336 3.74646 12.8223 2.89582ZM10.6689 27.5364C10.2998 27.4242 9.93945 27.3027 9.5791 27.1718C7.70703 26.5455 5.58008 25.5547 4.04199 24.2553C3.1543 23.601 2.55664 22.5915 2.38965 21.4604C2.38965 19.7497 5.16699 17.5624 9.1748 16.0761C9.67578 15.8891 10.1855 15.7209 10.6953 15.562C11.293 17.5904 12.0137 19.5815 12.8486 21.5071C12.0049 23.4608 11.2754 25.4799 10.6689 27.5364ZM20.917 36.6972C19.4668 38.1087 17.7881 39.2304 15.96 39.9969C14.9844 40.4923 13.8594 40.5391 12.8574 40.1184C11.46 39.2584 10.8799 35.9587 11.6709 31.5185C11.7676 30.995 11.873 30.4716 11.9961 29.9575C13.9648 30.4061 15.9512 30.7146 17.9639 30.8735C19.124 32.6215 20.3984 34.2948 21.7607 35.8652C21.4795 36.155 21.1982 36.4354 20.917 36.6972ZM23.0703 34.4257C22.1738 33.3974 21.2773 32.257 20.4072 31.0324C21.251 31.0698 22.1211 31.0885 23 31.0885C23.9053 31.0885 24.793 31.0698 25.6719 31.0231C24.8633 32.2103 23.9932 33.3413 23.0703 34.4257ZM34.5576 37.23C34.4785 38.3704 33.9512 39.436 33.1074 40.1558C31.71 41.0158 28.7305 39.8941 25.5137 36.9589C25.1445 36.6224 24.7754 36.2578 24.3975 35.8839C25.7422 34.3041 26.9814 32.6309 28.1064 30.8735C30.1191 30.6959 32.123 30.3688 34.1006 29.892C34.1885 30.2753 34.2676 30.6585 34.3379 31.0324C34.7686 33.0515 34.8389 35.1548 34.5576 37.23ZM36.1572 27.1812C35.9111 27.2653 35.665 27.3494 35.4102 27.4242C34.7949 25.3864 34.0391 23.3954 33.1689 21.4604C34.0127 19.5534 34.7246 17.5904 35.3223 15.5807C35.7793 15.7209 36.2188 15.8704 36.6406 16.02C40.7363 17.5156 43.6104 19.7404 43.6104 21.4417C43.6104 23.2738 40.543 25.6388 36.1572 27.1812ZM23 25.779C25.2236 25.779 27.0254 23.8627 27.0254 21.4978C27.0254 19.1328 25.2236 17.2165 23 17.2165C20.7764 17.2165 18.9746 19.1328 18.9746 21.4978C18.9746 23.8627 20.7764 25.779 23 25.779Z" fill="white"/>
</svg>
