<svg width="46" height="39" viewBox="0 0 46 39" fill="none" xmlns="http://www.w3.org/2000/svg">
<path d="M21.7231 29.4205C21.6809 29.5077 21.702 29.4689 21.7231 29.4205V29.4205ZM39.2403 22.3976C37.8261 22.3971 36.4307 22.77 35.1621 23.4874C34.7473 22.5268 34.3183 21.6873 34.248 21.0576C34.1637 20.3231 34.0723 19.8872 34.1707 19.0154C34.2691 18.1436 34.7121 16.9085 34.7051 16.8197C34.698 16.7309 34.6066 16.2869 33.6996 16.2789C32.7925 16.2708 32.0121 16.4807 31.9214 16.7551C31.7612 17.2567 31.6365 17.7723 31.5487 18.2969C31.387 19.2414 29.7353 22.6156 28.8002 24.3753C28.4908 23.6892 28.2306 23.0838 28.1744 22.5994C28.09 21.8649 27.9986 21.429 28.097 20.5572C28.1955 19.6854 28.6384 18.4503 28.6314 18.3615C28.6244 18.2727 28.533 17.8287 27.6266 17.8207C26.7203 17.8126 25.9391 18.0225 25.8477 18.2969C25.7563 18.5714 25.6579 19.2172 25.475 19.8387C25.2922 20.4603 23.0921 26.0786 22.5163 27.5397C22.2209 28.2823 21.9678 28.8797 21.785 29.2833C21.7569 29.3478 21.7358 29.3882 21.7217 29.4205C21.7428 29.3801 21.7569 29.3398 21.7569 29.3559C21.6022 29.703 21.5108 29.8968 21.5108 29.8968V29.9048C21.3912 30.1631 21.2576 30.3972 21.1944 30.3972C21.1522 30.3972 21.0608 29.7192 21.2155 28.7909C21.5459 26.8374 22.3264 23.8022 22.3194 23.6973C22.3123 23.6408 22.467 23.1161 21.8061 22.8335C21.1662 22.5672 20.9342 23.0111 20.878 23.0111C20.8217 23.0111 20.7795 23.1726 20.7795 23.1726C20.7795 23.1726 21.4897 19.7499 19.4161 19.7499C18.1224 19.7499 16.3224 21.3805 15.4378 22.8578C14.8823 23.2049 13.68 23.9556 12.4143 24.7547C11.9292 25.0615 11.43 25.3763 10.9589 25.675C10.9237 25.6346 10.8956 25.5942 10.8604 25.5539C8.3439 22.4703 3.6976 20.2908 3.89448 16.1497C3.96479 14.6402 4.42183 10.6767 12.8292 5.86565C19.7199 1.92639 25.2289 3.00807 26.1775 5.4136C27.5415 8.84431 23.232 15.2295 16.0763 16.1497C13.3488 16.4968 11.9151 15.286 11.5565 14.8339C11.1839 14.3577 11.1276 14.3334 10.987 14.4222C10.7549 14.5675 10.9026 14.9873 10.987 15.2375C11.1979 15.8752 12.0768 17.0054 13.5738 17.5704C14.8887 18.0628 18.0865 18.3373 21.953 16.6179C26.297 14.6967 29.6784 9.34479 28.687 4.86469C27.6773 0.311934 21.1016 -1.18143 14.8837 1.35326C11.1789 2.86277 7.17248 5.23601 4.29034 8.32769C0.866785 12.0086 0.319044 15.2133 0.544047 16.5533C1.34492 21.3079 7.05295 24.4076 9.33743 26.7001C9.22493 26.7728 9.11946 26.8374 9.02102 26.902C7.87562 27.5558 3.52393 30.1712 2.43477 32.9319C1.20429 36.064 2.63868 38.3081 3.58018 38.6148C6.51857 39.5512 9.52728 37.8641 11.1438 35.0953C12.7603 32.3265 12.5641 28.7101 11.8188 27.0634C11.8118 27.0392 11.7977 27.023 11.7907 26.9988C12.086 26.797 12.3883 26.5952 12.6907 26.3934C13.2736 25.9979 13.8431 25.6346 14.3423 25.3198C14.0611 26.1916 13.8572 27.241 13.7517 28.7586C13.6251 30.5345 14.265 32.8351 15.0947 33.7392C15.4603 34.1347 15.9026 34.1428 16.1768 34.1428C17.1471 34.1428 17.5831 33.2225 18.0675 32.1247C18.6652 30.7847 19.1925 29.2268 19.1925 29.2268C19.1925 29.2268 18.5316 33.4405 20.3387 33.4405C20.9989 33.4405 21.6598 32.4637 21.9559 31.9633V31.9713C21.9559 31.9713 21.9699 31.939 22.0051 31.8745C22.0754 31.7534 22.1105 31.6807 22.1105 31.6807V31.6565C22.3777 31.1318 22.9613 29.9291 23.8396 27.9433C24.9786 25.3763 26.0678 22.1716 26.0678 22.1716C26.173 22.8761 26.3187 23.5718 26.5037 24.2543C26.7006 25.0211 27.1154 25.8606 27.4459 26.6759C27.1787 27.0957 27.017 27.3379 27.017 27.3379C27.0175 27.3441 27.02 27.3498 27.024 27.354C26.8131 27.6769 26.574 28.024 26.3279 28.363C25.4286 29.59 24.3592 30.9946 24.2185 31.3982C24.0498 31.8745 24.092 32.2296 24.4154 32.5041C24.6545 32.714 25.0764 32.7463 25.5186 32.7059C26.3272 32.6413 26.8968 32.4153 27.171 32.27C27.6765 32.0619 28.1543 31.7739 28.5906 31.4143C29.4695 30.6717 30.0039 29.6062 29.9547 28.2016C29.9266 27.4267 29.7086 26.6517 29.4414 25.9252C29.5188 25.7961 29.6031 25.6588 29.6805 25.5216C31.072 23.1887 32.1478 20.6282 32.1478 20.6282C32.253 21.3327 32.3987 22.0284 32.5837 22.7108C32.7525 23.3647 33.0822 24.0831 33.3846 24.7854C32.0775 26.0043 31.2689 27.417 30.9876 28.3453C30.4673 30.0647 30.8751 30.8396 31.6415 31.0172C31.9861 31.0979 32.4782 30.9123 32.8439 30.7347C33.3869 30.527 33.8989 30.2248 34.3619 29.8386C35.2409 29.096 36.0909 28.0547 36.0347 26.642C36.0136 26.0043 35.8589 25.3666 35.655 24.7531C36.7589 24.2204 38.1926 23.9297 40.0208 24.1719C43.9358 24.6966 44.7022 27.5058 44.5546 28.6762C44.4069 29.8467 43.5842 30.5006 43.31 30.6943C43.0358 30.888 42.9514 30.9607 42.9725 31.106C43.0077 31.3159 43.1342 31.3078 43.3663 31.2594C43.6897 31.1948 45.4187 30.3068 45.4961 28.1354C45.6086 25.3908 43.31 22.3718 39.2382 22.396L39.2403 22.3976ZM9.06321 34.0782C7.77015 35.7007 5.95606 36.3142 5.17629 35.7976C4.33956 35.239 4.67003 32.8512 6.26544 31.1221C7.23577 30.0727 8.48664 29.1041 9.31634 28.5067C9.50618 28.3776 9.7804 28.1838 10.1179 27.9497C10.1742 27.9094 10.2023 27.8932 10.2023 27.8932C10.2656 27.8448 10.3359 27.8044 10.4062 27.756C10.9891 30.21 10.4273 32.3733 9.06321 34.0766V34.0782ZM18.5105 26.7001C18.0605 27.9675 17.112 31.1964 16.5354 31.0269C16.0432 30.8816 15.7409 28.4195 16.437 25.9979C16.7885 24.7789 17.5339 23.3259 17.9768 22.7609C18.6863 21.8487 19.4668 21.5581 19.6496 21.9214C19.8957 22.3976 18.7918 25.9091 18.5105 26.7001ZM26.3153 30.9784C26.1254 31.0915 25.9497 31.1641 25.8653 31.1076C25.802 31.0672 25.9426 30.9139 25.9426 30.9139C25.9426 30.9139 26.92 29.7111 27.3067 29.1622C27.5317 28.8393 27.7919 28.4599 28.0724 28.0401C28.0724 28.0805 28.0794 28.1209 28.0794 28.1693C28.0703 29.6142 26.8616 30.591 26.3132 30.9784H26.3153ZM32.3327 29.4044C32.1921 29.2913 32.2132 28.9119 32.6843 27.7334C32.8671 27.2733 33.2883 26.4983 34.0202 25.7557C34.1031 26.0368 34.1481 26.3308 34.1538 26.6275C34.1468 28.4438 33.0147 29.1218 32.3334 29.4044H32.3327Z" fill="white"/>
</svg>
