<svg xmlns="http://www.w3.org/2000/svg" width="23" height="25" viewBox="0 0 23 25" fill="none">
    <path
        d="M20.5225 6.25035C19.4275 6.2294 18.5313 7.14649 18.5313 8.24171V12.5H18.1406V3.89601C18.1406 2.80079 17.2443 1.8837 16.1494 1.90465C15.0883 1.92496 14.2344 2.79147 14.2344 3.85743V12.5H13.8438V1.99171C13.8438 0.896495 12.9475 -0.0205954 11.8525 0.000351894C10.7914 0.0206644 9.9375 0.887168 9.9375 1.95314V12.5H9.54688V3.94483C9.54688 2.84962 8.65059 1.93253 7.55562 1.95348C6.49453 1.97379 5.64063 2.84029 5.64063 3.90626V15.4293L4.09531 13.3044C3.46089 12.432 2.23941 12.2391 1.36695 12.8735C0.494631 13.508 0.301759 14.7295 0.936183 15.6019L7.06904 24.0348C7.28648 24.3337 7.57155 24.577 7.90097 24.7448C8.23039 24.9126 8.59483 25 8.9645 25H18.6125C19.7 25 20.6448 24.2518 20.8939 23.1931L22.1882 17.6921C22.3538 16.9884 22.4374 16.2678 22.4375 15.5449V8.20314C22.4375 7.13717 21.5836 6.27066 20.5225 6.25035Z"
        fill="white" />
</svg>