<svg xmlns="http://www.w3.org/2000/svg" width="114" height="14" viewBox="0 0 114 14" fill="none">
    <path
        d="M2 12L11.5945 3.27776C12.3914 2.55324 13.6086 2.55324 14.4055 3.27776L22.5945 10.7222C23.3914 11.4468 24.6086 11.4468 25.4055 10.7222L33.5945 3.27776C34.3914 2.55324 35.6086 2.55324 36.4055 3.27776L44.5945 10.7222C45.3914 11.4468 46.6086 11.4468 47.4055 10.7222L55.5945 3.27776C56.3914 2.55324 57.6086 2.55324 58.4055 3.27776L66.5945 10.7222C67.3914 11.4468 68.6086 11.4468 69.4055 10.7222L77.5945 3.27776C78.3914 2.55324 79.6086 2.55324 80.4055 3.27776L88.5945 10.7222C89.3914 11.4468 90.6086 11.4468 91.4055 10.7222L99.5945 3.27776C100.391 2.55324 101.609 2.55324 102.406 3.27776L112 12"
        stroke="white" stroke-width="5" />
</svg>