<svg xmlns="http://www.w3.org/2000/svg" viewBox="0 0 60 60" fill="none">
    <g filter="url(#filter0_b_106_188)">
        <circle cx="30" cy="30" r="30" transform="matrix(1 0 0 -1 0 60)" fill="white"
            fill-opacity="0.2" />
        <circle cx="30" cy="30" r="29.5" transform="matrix(1 0 0 -1 0 60)" stroke="white"
            stroke-opacity="0.01" />
    </g>
    <path
        d="M23.185 21.5869C23.2789 22.1434 23.7631 22.5625 24.3412 22.5625H25.5336C26.2418 22.5625 26.8055 21.9482 26.7115 21.2617C26.4369 19.2238 25.5264 17.3449 24.0666 15.8635C23.026 14.8012 22.3611 13.457 22.1588 11.9973C22.0793 11.4264 21.5879 11 20.9953 11H19.8102C19.102 11 18.5527 11.6143 18.6322 12.3008C18.9141 14.6061 19.933 16.7307 21.5662 18.4C22.4334 19.2816 22.9898 20.3873 23.185 21.5869ZM31.2787 21.5869C31.3727 22.1434 31.8568 22.5625 32.435 22.5625H33.6273C34.3355 22.5625 34.8992 21.9482 34.8053 21.2617C34.5307 19.2238 33.6201 17.3449 32.1604 15.8635C31.1197 14.8012 30.4549 13.457 30.2525 11.9973C30.173 11.4264 29.6816 11 29.0891 11H27.9039C27.1957 11 26.6393 11.6143 26.726 12.3008C27.0078 14.6061 28.0268 16.7307 29.66 18.4C30.5271 19.2816 31.0836 20.3873 31.2787 21.5869ZM42.9062 24.875H16.3125C15.0334 24.875 14 25.9084 14 27.1875V41.0625C14 44.8926 17.1074 48 20.9375 48H34.8125C38.6426 48 41.75 44.8926 41.75 41.0625H42.9062C47.3723 41.0625 51 37.4348 51 32.9687C51 28.5027 47.3723 24.875 42.9062 24.875ZM42.9062 36.4375H41.75V29.5H42.9062C44.8213 29.5 46.375 31.0537 46.375 32.9687C46.375 34.8838 44.8213 36.4375 42.9062 36.4375Z"
        fill="white" />
    <defs>
        <filter id="filter0_b_106_188" x="-40" y="-40" width="140" height="140"
            filterUnits="userSpaceOnUse" color-interpolation-filters="sRGB">
            <feFlood flood-opacity="0" result="BackgroundImageFix" />
            <feGaussianBlur in="BackgroundImageFix" stdDeviation="20" />
            <feComposite in2="SourceAlpha" operator="in" result="effect1_backgroundBlur_106_188" />
            <feBlend mode="normal" in="SourceGraphic" in2="effect1_backgroundBlur_106_188"
                result="shape" />
        </filter>
    </defs>
</svg>