<svg
    xmlns="http://www.w3.org/2000/svg"
    viewBox="0 0 60 60"
    fill="none"
>
    <g filter="url(#filter0_b_106_182)">
        <circle
            cx="30"
            cy="30"
            r="30"
            transform="matrix(1 0 0 -1 0 60)"
            fill="white"
            fill-opacity="0.2"
        />
        <circle
            cx="30"
            cy="30"
            r="29.5"
            transform="matrix(1 0 0 -1 0 60)"
            stroke="white"
            stroke-opacity="0.01"
        />
    </g>
    <path
        d="M23.7067 40.4778C23.7067 40.6189 23.5444 40.7319 23.3397 40.7319C23.1069 40.753 22.9446 40.6401 22.9446 40.4778C22.9446 40.3367 23.1069 40.2238 23.3115 40.2238C23.5232 40.2026 23.7067 40.3155 23.7067 40.4778ZM21.5121 40.1603C21.4627 40.3014 21.6038 40.4637 21.8155 40.506C21.999 40.5766 22.2107 40.506 22.253 40.3649C22.2954 40.2238 22.1613 40.0615 21.9496 39.998C21.7661 39.9486 21.5615 40.0191 21.5121 40.1603ZM24.631 40.0403C24.4264 40.0897 24.2853 40.2238 24.3065 40.3861C24.3276 40.5272 24.5111 40.6189 24.7228 40.5696C24.9274 40.5202 25.0685 40.3861 25.0474 40.245C25.0262 40.1109 24.8357 40.0192 24.631 40.0403ZM29.2742 13C19.4869 13 12 20.4304 12 30.2177C12 38.0433 16.9254 44.7399 23.9607 47.0968C24.8639 47.2591 25.1815 46.7016 25.1815 46.2429C25.1815 45.8054 25.1603 43.3921 25.1603 41.9103C25.1603 41.9103 20.2208 42.9687 19.1835 39.8075C19.1835 39.8075 18.379 37.754 17.2218 37.2248C17.2218 37.2248 15.6058 36.1169 17.3347 36.1381C17.3347 36.1381 19.0917 36.2792 20.0585 37.9587C21.6038 40.6825 24.1935 39.8992 25.2026 39.4335C25.3649 38.3044 25.8236 37.5212 26.3317 37.0554C22.3871 36.6179 18.4073 36.0464 18.4073 29.2581C18.4073 27.3175 18.9435 26.3437 20.0726 25.1018C19.8891 24.6431 19.2893 22.752 20.256 20.3105C21.7308 19.8518 25.125 22.2157 25.125 22.2157C26.5363 21.8206 28.0534 21.6159 29.5565 21.6159C31.0595 21.6159 32.5766 21.8206 33.9879 22.2157C33.9879 22.2157 37.3821 19.8448 38.8569 20.3105C39.8236 22.7591 39.2238 24.6431 39.0403 25.1018C40.1694 26.3508 40.8609 27.3246 40.8609 29.2581C40.8609 36.0675 36.7046 36.6109 32.7601 37.0554C33.4093 37.6129 33.9597 38.6714 33.9597 40.3296C33.9597 42.7077 33.9385 45.6502 33.9385 46.2288C33.9385 46.6875 34.2631 47.245 35.1593 47.0827C42.2157 44.7399 47 38.0433 47 30.2177C47 20.4304 39.0615 13 29.2742 13ZM18.8589 37.3377C18.7671 37.4083 18.7883 37.5706 18.9083 37.7046C19.0212 37.8175 19.1835 37.8669 19.2752 37.7752C19.3669 37.7046 19.3458 37.5423 19.2258 37.4083C19.1129 37.2954 18.9506 37.246 18.8589 37.3377ZM18.0968 36.7661C18.0474 36.8579 18.1179 36.9708 18.2591 37.0413C18.372 37.1119 18.5131 37.0907 18.5625 36.9919C18.6119 36.9002 18.5413 36.7873 18.4002 36.7167C18.2591 36.6744 18.1462 36.6956 18.0968 36.7661ZM20.3831 39.2782C20.2702 39.37 20.3125 39.5817 20.4748 39.7157C20.6371 39.878 20.8417 39.8992 20.9335 39.7863C21.0252 39.6946 20.9829 39.4829 20.8417 39.3488C20.6865 39.1865 20.4748 39.1653 20.3831 39.2782ZM19.5786 38.2409C19.4657 38.3115 19.4657 38.495 19.5786 38.6573C19.6915 38.8196 19.8821 38.8901 19.9738 38.8196C20.0867 38.7278 20.0867 38.5444 19.9738 38.3821C19.875 38.2198 19.6915 38.1492 19.5786 38.2409Z"
        fill="white"
    />
    <defs>
        <filter
            id="filter0_b_106_182"
            x="-40"
            y="-40"
            width="140"
            height="140"
            filterUnits="userSpaceOnUse"
            color-interpolation-filters="sRGB"
        >
            <feFlood flood-opacity="0" result="BackgroundImageFix" />
            <feGaussianBlur
                in="BackgroundImageFix"
                stdDeviation="20"
            />
            <feComposite
                in2="SourceAlpha"
                operator="in"
                result="effect1_backgroundBlur_106_182"
            />
            <feBlend
                mode="normal"
                in="SourceGraphic"
                in2="effect1_backgroundBlur_106_182"
                result="shape"
            />
        </filter>
    </defs>
</svg>