<svg xmlns="http://www.w3.org/2000/svg" viewBox="0 0 60 60" fill="none">
    <g filter="url(#filter0_b_106_191)">
        <circle cx="30" cy="30" r="30" transform="matrix(1 0 0 -1 0 60)" fill="white"
            fill-opacity="0.2" />
        <circle cx="30" cy="30" r="29.5" transform="matrix(1 0 0 -1 0 60)" stroke="white"
            stroke-opacity="0.01" />
    </g>
    <path
        d="M44.4024 22.4765C44.4246 22.8046 44.4246 23.1328 44.4246 23.4609C44.4246 33.4687 37.207 45 24.0153 45C19.9511 45 16.1758 43.7578 13 41.6016C13.5774 41.6719 14.1326 41.6953 14.7322 41.6953C18.0856 41.6953 21.1726 40.5 23.6377 38.461C20.4842 38.3906 17.8414 36.211 16.9308 33.2109C17.375 33.2812 17.8191 33.3281 18.2856 33.3281C18.9296 33.3281 19.5737 33.2343 20.1733 33.0703C16.8865 32.3671 14.4213 29.3203 14.4213 25.6406V25.5469C15.3762 26.1094 16.4867 26.461 17.6636 26.5078C15.7315 25.1484 14.4657 22.8281 14.4657 20.2031C14.4657 18.7968 14.821 17.5078 15.4428 16.3828C18.9739 20.9765 24.2817 23.9765 30.2335 24.3047C30.1224 23.7422 30.0558 23.1563 30.0558 22.5703C30.0558 18.3984 33.2538 15 37.229 15C39.2944 15 41.1599 15.9141 42.4702 17.3906C44.0913 17.0625 45.6459 16.4297 47.0229 15.5625C46.4898 17.3204 45.3572 18.7969 43.8693 19.7344C45.3129 19.5704 46.712 19.1484 48 18.5625C47.023 20.0625 45.8015 21.3983 44.4024 22.4765Z"
        fill="white" />
    <defs>
        <filter id="filter0_b_106_191" x="-40" y="-40" width="140" height="140"
            filterUnits="userSpaceOnUse" color-interpolation-filters="sRGB">
            <feFlood flood-opacity="0" result="BackgroundImageFix" />
            <feGaussianBlur in="BackgroundImageFix" stdDeviation="20" />
            <feComposite in2="SourceAlpha" operator="in" result="effect1_backgroundBlur_106_191" />
            <feBlend mode="normal" in="SourceGraphic" in2="effect1_backgroundBlur_106_191"
                result="shape" />
        </filter>
    </defs>
</svg>