<svg xmlns="http://www.w3.org/2000/svg" viewBox="0 0 60 60" fill="none">
    <g filter="url(#filter0_b_106_188)">
        <circle cx="30" cy="30" r="30" transform="matrix(1 0 0 -1 0 60)" fill="white"
            fill-opacity="0.2" />
        <circle cx="30" cy="30" r="29.5" transform="matrix(1 0 0 -1 0 60)" stroke="white"
            stroke-opacity="0.01" />
    </g>
    <path
        d="M34.9029 28.625C34.9029 29.6925 34.1314 30.5675 33.1543 30.5675C32.1943 30.5675 31.4057 29.6925 31.4057 28.625C31.4057 27.5575 32.1771 26.6825 33.1543 26.6825C34.1314 26.6825 34.9029 27.5575 34.9029 28.625ZM26.8971 26.6825C25.92 26.6825 25.1486 27.5575 25.1486 28.625C25.1486 29.6925 25.9371 30.5675 26.8971 30.5675C27.8743 30.5675 28.6457 29.6925 28.6457 28.625C28.6629 27.5575 27.8743 26.6825 26.8971 26.6825ZM45 15.605V47C40.6812 43.1039 42.0624 44.3936 37.0457 39.6325L37.9543 42.87H18.5143C16.5771 42.87 15 41.26 15 39.265V15.605C15 13.61 16.5771 12 18.5143 12H41.4857C43.4229 12 45 13.61 45 15.605ZM40.1143 32.195C40.1143 26.56 37.6457 21.9925 37.6457 21.9925C35.1771 20.1025 32.8286 20.155 32.8286 20.155L32.5886 20.435C35.5029 21.345 36.8571 22.6575 36.8571 22.6575C32.785 20.3792 28.0015 20.3787 24.0514 22.15C23.4171 22.4475 23.04 22.6575 23.04 22.6575C23.04 22.6575 24.4629 21.275 27.5486 20.365L27.3771 20.155C27.3771 20.155 25.0286 20.1025 22.56 21.9925C22.56 21.9925 20.0914 26.56 20.0914 32.195C20.0914 32.195 21.5314 34.7325 25.32 34.855C25.32 34.855 25.9543 34.0675 26.4686 33.4025C24.2914 32.7375 23.4686 31.3375 23.4686 31.3375C23.7208 31.5177 24.1366 31.7513 24.1714 31.775C27.065 33.4292 31.1751 33.9711 34.8686 32.3875C35.4686 32.16 36.1371 31.8275 36.84 31.355C36.84 31.355 35.9829 32.79 33.7371 33.4375C34.2514 34.1025 34.8686 34.855 34.8686 34.855C38.6571 34.7325 40.1143 32.195 40.1143 32.195Z"
        fill="white" />
    <defs>
        <filter id="filter0_b_106_188" x="-40" y="-40" width="140" height="140"
            filterUnits="userSpaceOnUse" color-interpolation-filters="sRGB">
            <feFlood flood-opacity="0" result="BackgroundImageFix" />
            <feGaussianBlur in="BackgroundImageFix" stdDeviation="20" />
            <feComposite in2="SourceAlpha" operator="in" result="effect1_backgroundBlur_106_188" />
            <feBlend mode="normal" in="SourceGraphic" in2="effect1_backgroundBlur_106_188"
                result="shape" />
        </filter>
    </defs>
</svg>